<?xml version="1.0" encoding="UTF-8" standalone="no"?>
<!-- Created with Inkscape (http://www.inkscape.org/) -->

<svg
   width="256"
   height="256"
   viewBox="0 0 256 256"
   version="1.1"
   id="svg1"
   inkscape:version="1.4 (86a8ad7, 2024-10-11)"
   sodipodi:docname="logo.svg"
   xml:space="preserve"
   xmlns:inkscape="http://www.inkscape.org/namespaces/inkscape"
   xmlns:sodipodi="http://sodipodi.sourceforge.net/DTD/sodipodi-0.dtd"
   xmlns="http://www.w3.org/2000/svg"
   xmlns:svg="http://www.w3.org/2000/svg"
   xmlns:rdf="http://www.w3.org/1999/02/22-rdf-syntax-ns#"
   xmlns:cc="http://creativecommons.org/ns#"
   xmlns:dc="http://purl.org/dc/elements/1.1/"><title
     id="title1">Start Steps</title><sodipodi:namedview
     id="namedview1"
     pagecolor="#505050"
     bordercolor="#ffffff"
     borderopacity="0.50196078"
     inkscape:showpageshadow="0"
     inkscape:pageopacity="0"
     inkscape:pagecheckerboard="1"
     inkscape:deskcolor="#505050"
     inkscape:document-units="px"
     showborder="true"
     inkscape:zoom="1"
     inkscape:cx="398.5"
     inkscape:cy="173.5"
     inkscape:window-width="1920"
     inkscape:window-height="1051"
     inkscape:window-x="-9"
     inkscape:window-y="-9"
     inkscape:window-maximized="1"
     inkscape:current-layer="layer1" /><defs
     id="defs1" /><g
     inkscape:label="Logo"
     inkscape:groupmode="layer"
     id="layer1"><path
       id="rect13"
       style="fill:#37abc8;stroke-width:25.8925;stroke-linecap:round;stroke-linejoin:round;stroke-miterlimit:3.8;paint-order:markers fill stroke"
       d="m 76.552733,44.132813 c -0.559431,0.0265 -0.933588,0.126953 -0.933588,0.126953 -32.158196,3.263213 -57.08985,30.271126 -57.08985,63.318364 v 85.07812 c 0,33.04724 24.931654,60.05709 57.08985,63.32031 0,0 5.966793,0.36766 5.966793,-6.32031 0,-6.09567 -5.966793,-6.32031 -5.966793,-6.32031 -25.874511,-5.21052 -45.24414,-27.9692 -45.24414,-55.42383 v -75.58789 c 0,-27.454646 19.369629,-50.213302 45.24414,-55.423829 0,0 5.966793,-0.575083 5.966793,-6.320313 0,-5.942303 -3.354913,-6.526786 -5.033205,-6.447265 z M 197.6875,44.259766 c 0,0 -5.9668,-0.13074 -5.9668,6.320312 0,5.977216 5.9668,6.320313 5.9668,6.320313 20.01312,4.030121 36.08953,18.578877 42.36719,37.658198 0,0 1.03806,6.655101 6.71142,6.655101 6.388,0 6.8203,-4.633761 6.65186,-6.655101 C 247.86563,67.674086 225.49603,47.081601 197.6875,44.259766 Z m 42.40234,161.308594 c -6.25202,19.133 -22.35111,33.72978 -42.40234,37.76758 0,0 -5.9668,0.40756 -5.9668,6.32031 0,7.08545 5.9668,6.32031 5.9668,6.32031 27.84679,-2.82572 50.2443,-23.46935 55.75781,-50.4082 0.10528,-1.11595 0.72767,-6.07455 -6.32041,-6.07455 -6.03565,0 -7.03506,6.07455 -7.03506,6.07455 z"
       sodipodi:nodetypes="scsscscsscsscsccsccccsccsc" /><path
       style="fill:#5fd38d;stroke-width:0.358496"
       d="m 66.761353,226.83829 c 0,0 -13.831067,-6.08136 -20.167164,-21.75327 -2.722911,-6.73493 -2.801798,-25.54573 -2.801798,-25.54573 0,0 -0.729816,-69.45091 0.571743,-74.92557 1.032157,-9.064406 4.637765,-16.192469 11.799701,-23.327284 9.299092,-9.263864 22.759094,-13.850799 36.509483,-14.470301 5.254203,-0.23672 10.000892,0.309396 14.172122,1.563232 11.79196,3.544561 18.985,12.745068 20.0442,25.904509 0.71068,8.829434 -3.45115,19.162664 -10.31081,25.600254 -3.76597,3.53426 -7.203,5.82537 -17.133606,11.42121 -11.606859,6.54041 -19.155772,15.36164 -22.716268,26.54497 -1.623901,5.10063 -2.159204,8.83723 -2.157016,15.05681 0.003,8.68194 1.660938,15.71323 5.350177,22.69072 l 1.572174,2.97346 -1.056463,1.71697 c -1.885337,3.06406 -4.354142,8.09477 -5.452973,12.31364 -0.907978,3.48603 -0.993957,4.01513 -1.140642,8.94134 l -0.185313,6.22344 -2.373279,-0.0285 c -1.305309,-0.0156 -3.34111,-0.4496 -4.524268,-0.8999 z M 7.7323125,76.706911 C 3.997921,75.374522 1.2277494,71.526852 1.2209766,67.662941 1.2055611,58.84321 11.169902,54.31025 17.791991,60.12451 21.778588,63.624796 22.025275,70.204616 18.315339,74.084002 15.606312,76.91679 11.307,77.982334 7.7323125,76.706911 Z M 119.577,54.763692 C 108.8131,53.328436 99.264973,44.915195 96.552485,34.475841 95.640628,30.96649 95.559284,24.956243 96.37125,21.084281 c 0.82738,-3.945465 3.268527,-8.620401 6.13464,-11.748212 5.34729,-5.8355048 11.42522,-8.77656978 19.16605,-9.27431562 16.23053,-1.04363784 29.41392,11.26591162 29.39134,27.44316462 -0.006,4.741451 -0.6481,7.534214 -2.70424,11.773195 -4.43017,9.13334 -13.19171,14.915367 -23.63988,15.600707 -1.57739,0.103463 -3.89135,0.05172 -5.14216,-0.115128 z M 26.717979,50.083443 c -2.475976,-0.7601 -5.603477,-3.920769 -6.474488,-6.543142 -2.347223,-7.066809 3.431523,-14.489231 10.834149,-13.915745 5.929249,0.459344 9.922669,4.739449 9.938861,10.65236 0.006,2.31841 -0.139187,2.953297 -1.056653,4.609818 -2.623576,4.736941 -7.94144,6.823911 -13.241869,5.196709 z M 56.907485,35.050757 C 48.871077,33.460807 45.595558,23.585218 51.045756,17.377785 54.970473,12.907778 61.914505,12.53587 66.365743,16.55729 c 5.462113,4.934694 4.386255,13.969347 -2.053076,17.240996 -1.402574,0.712616 -4.931384,1.701069 -5.663955,1.586539 -0.138172,-0.02166 -0.921723,-0.171933 -1.741227,-0.334068 z m 22.92752,-10.404879 c -3.200978,-1.951754 -2.949488,-6.811117 0.43563,-8.417463 3.210834,-1.52365 6.746754,0.741607 6.746754,4.322234 0,3.626864 -4.108539,5.969456 -7.182384,4.095229 z"
       id="path13-3"
       sodipodi:nodetypes="csccssssssssscssscccccssscsssscsscscscsscsssccsssss" /><ellipse
       style="fill:#decd87;fill-opacity:1;stroke-width:16.0432;stroke-linecap:round;stroke-linejoin:round;stroke-miterlimit:3.8;paint-order:markers fill stroke"
       id="path14"
       cx="248.38426"
       cy="121.20113"
       rx="7.6157327"
       ry="7.5" /><rect
       style="fill:#decd87;fill-opacity:1;stroke-width:13.2862;stroke-linecap:round;stroke-linejoin:round;stroke-miterlimit:3.8;paint-order:markers fill stroke"
       id="rect14"
       width="64"
       height="14.990901"
       x="165.33392"
       y="113.70568"
       ry="8.3539991"
       rx="8.3539991" /><ellipse
       style="fill:#decd87;fill-opacity:1;stroke-width:16.0432;stroke-linecap:round;stroke-linejoin:round;stroke-miterlimit:3.8;paint-order:markers fill stroke"
       id="path14-38"
       cx="248.38426"
       cy="149.94249"
       rx="7.6157327"
       ry="7.5" /><rect
       style="fill:#decd87;fill-opacity:1;stroke-width:16.2722;stroke-linecap:round;stroke-linejoin:round;stroke-miterlimit:3.8;paint-order:markers fill stroke"
       id="rect14-7"
       width="96"
       height="14.990901"
       x="133.33392"
       y="142.44704"
       ry="8.3540001"
       rx="8.3540001" /><ellipse
       style="fill:#decd87;fill-opacity:1;stroke-width:16.0432;stroke-linecap:round;stroke-linejoin:round;stroke-miterlimit:3.8;paint-order:markers fill stroke"
       id="path14-3"
       cx="248.38426"
       cy="178.68384"
       rx="7.6157327"
       ry="7.5" /><rect
       style="fill:#decd87;fill-opacity:1;stroke-width:18.7897;stroke-linecap:round;stroke-linejoin:round;stroke-miterlimit:3.8;paint-order:markers fill stroke"
       id="rect14-7-1"
       width="128"
       height="14.990901"
       x="101.33392"
       y="171.18839"
       ry="8.3540001"
       rx="8.3540001" /></g><metadata
     id="metadata1"><rdf:RDF><cc:Work
         rdf:about=""><dc:title>Start Steps</dc:title></cc:Work></rdf:RDF></metadata></svg>
